# xmcd
#
# Track frame offsets:
#	150
#	19113
#	38702
#	53585
#	68461
#	90445
#	102768
#	124973
#	137415
#	153385
#
# Disc length: 2223 seconds
#
# Revision: 0
# Processed by: cddbd v1.5.2PL0 Copyright (c) Steve Scherf et al.
# Submitted via: dBpowerAMP V4.0
#
DISCID=7008ad0a
DTITLE=Paul Minor - Shadow Figure
DYEAR=1900
DGENRE=
TTITLE0=1. Made to be Broken
TTITLE1=2. Every Star Has a Shadow
TTITLE2=3. Break it to Myself
TTITLE3=4. Raincoat
TTITLE4=5. Three on a March
TTITLE5=6. Tulips Two-Step
TTITLE6=7. The Truth
TTITLE7=8. Ordinary Girls
TTITLE8=9. My Beautiful Child
TTITLE9=10. Lost Highway
EXTD=
EXTT0=
EXTT1=
EXTT2=
EXTT3=
EXTT4=
EXTT5=
EXTT6=
EXTT7=
EXTT8=
EXTT9=
PLAYORDER=
